<svg xmlns="http://www.w3.org/2000/svg" viewBox="0 0 524.66 152.34"><defs><style>.a{fill:#2649db;}</style></defs><path class="a" d="M269.1,130.37a32.63,32.63,0,0,1-1.76-9.07,388.63,388.63,0,0,1-.84-53.74c.36-7.62.88-15.32-.49-22.83s-4.88-14.93-11.1-19.37c-5.08-3.64-11.46-4.95-17.67-5.59-15.66-1.61-34.38,1.87-40.83,18.26-.2.49-.66,1.89-1.38,1.72s-.66-1.39-.84-1.89c-.3-.8-.59-1.56-.88-2.29a24.23,24.23,0,0,0-8.76-10.27,32,32,0,0,0-12.71-4.81,87.92,87.92,0,0,0-13.58-1.09c-9.22,0-19.44.5-25.56,8.43a24.65,24.65,0,0,0-1.9,2.84A72.2,72.2,0,0,0,125,44.92l-5.19,16.21L109.47,93.56,99.09,126,98,129.56a43.09,43.09,0,0,1-.83-10.34c0-32.37,0-65.55,0-97.92l17.2-.1c0-.86,0-.92,0-1.79-14.47.36-28.64-1-42.91.69-4.45.52-9,1.81-12.36,4.77C54.42,29,53,35.69,52.59,41.93a26.26,26.26,0,0,0-17.66-16.6,23.82,23.82,0,0,0-23.12,6.51c-8.34,9-7.56,24.13-.16,33.94a23.44,23.44,0,0,0,11.6,8.62c4.69,1.4,10.14.7,13.87-2.47,3.23-2.75,4.86-7,5.24-11.24.57-6.27-1.35-11-4.52-16.42-1.44-2.49-3.22-5.26-2.38-8,.93-3.07,5-4.33,7.95-3.18s5,4,6.26,7c2.7,6.3,2.76,11.76,2.78,18.62l.22,78.87-17.11,0v1.82h78.86v-1.81H104.2c-1.11,0-2.38-.06-3.09-.92s-.47-2.41-.09-3.61l10.15-32.49L121.33,68c2.41-7.71,4.87-15.41,7.31-23.11l1.53-4.83c.94-3,1.92-6.06,3.79-8.59s4.83-4.48,8-4.31a9,9,0,0,1,6.34,3.56,16.33,16.33,0,0,1,3,7,43.83,43.83,0,0,1,.9,8.54V107A41.87,41.87,0,0,0,154,119.7a25.74,25.74,0,0,0,6.24,10.39,29.43,29.43,0,0,0,11.61,7q7.23,2.52,18,2.51h19.28v-1.75q-7.23,0-10.19-7.54t-2.95-20.43c0-10.94-.33-21.87-.22-32.81.1-9.55.15-19.33,1.95-28.73,1.48-7.67,3.66-21.62,16.53-19.87a6.87,6.87,0,0,1,4.26,2.29c3.12,3.59,3.54,8,3.79,12.38,1.18,20.26-.73,40.59.13,60.87.37,8.82,1.51,18.23,7.19,25s14.74,9.53,23.48,10.26,17.56-.3,26.31.33l-.11-2c-3.75.53-7.39-2.05-9.25-5.34A15.27,15.27,0,0,1,269.1,130.37Z"/><path d="M312.29,78.49V76.56l2.5-.43V58.58l-2.5-.43V56.21h16.5v5.35h-2.42l-.34-3H317.8v7.26H326v2.37H317.8v8.06h8.72l.34-3.07h2.4v5.34Z"/><path d="M332.31,78.49V76.56l2.49-.43V58.58l-2.49-.43V56.21h5.54l10.92,17.36.09,0v-15l-2.74-.43V56.21h8v1.94l-2.5.43V78.49h-2.75L337.66,61l-.09,0V76.13l2.74.43v1.93Z"/><path d="M356.63,78.49V76.56l2.5-.43V58.58l-2.5-.43V56.21h8.73a9.3,9.3,0,0,1,5.14,1.41,9.4,9.4,0,0,1,3.42,3.87,12.43,12.43,0,0,1,1.23,5.63v.47A12.67,12.67,0,0,1,374,73.15a9.53,9.53,0,0,1-3.34,3.91,9.12,9.12,0,0,1-5.12,1.43Zm5.51-2.36h3.22A5.8,5.8,0,0,0,369,75a7.58,7.58,0,0,0,2.34-3.1,11,11,0,0,0,.81-4.29v-.5a11.06,11.06,0,0,0-.81-4.35,7.13,7.13,0,0,0-2.34-3,5.91,5.91,0,0,0-3.62-1.12h-3.22Z"/><path d="M377.38,78.49V76.56l2.5-.43V58.58l-2.5-.43V56.21h8v1.94l-2.49.43v17.6h7.88l.35-3.52h2.31v5.83Z"/><path d="M395.9,78.49V76.56l2.49-.43V58.58l-2.49-.43V56.21h16.49v5.35H410l-.33-3H401.4v7.26h8.22v2.37H401.4v8.06h8.73l.33-3.07h2.4v5.34Z"/><path d="M423.91,78.81a12.85,12.85,0,0,1-3.92-.6,12.61,12.61,0,0,1-3.59-1.84V71.62h2.34l.5,3.5a8.77,8.77,0,0,0,4.67,1.29,6.41,6.41,0,0,0,2.59-.47,3.68,3.68,0,0,0,1.63-1.29,3.35,3.35,0,0,0,.57-1.93,3.29,3.29,0,0,0-.49-1.81,4.14,4.14,0,0,0-1.61-1.37,13.47,13.47,0,0,0-3.07-1,14.71,14.71,0,0,1-3.88-1.43,6.62,6.62,0,0,1-2.4-2.17,5.28,5.28,0,0,1-.82-2.93,5.48,5.48,0,0,1,.92-3.12,6.37,6.37,0,0,1,2.58-2.18,8.81,8.81,0,0,1,3.86-.79,11.29,11.29,0,0,1,4.14.71,10.21,10.21,0,0,1,3,1.72v4.45h-2.34L428,59.59a6,6,0,0,0-1.71-.92,7.7,7.7,0,0,0-2.54-.37,5.41,5.41,0,0,0-2.27.46A3.67,3.67,0,0,0,420,60a3.38,3.38,0,0,0-.55,1.91,2.87,2.87,0,0,0,.5,1.68,4.11,4.11,0,0,0,1.62,1.27,15.87,15.87,0,0,0,3,1,11.86,11.86,0,0,1,5.33,2.58,5.55,5.55,0,0,1,1.81,4.22,5.42,5.42,0,0,1-1,3.17A6.31,6.31,0,0,1,428,78,10,10,0,0,1,423.91,78.81Z"/><path d="M442.36,78.81a12.78,12.78,0,0,1-3.91-.6,12.53,12.53,0,0,1-3.6-1.84V71.62h2.34l.51,3.5a8.85,8.85,0,0,0,2.15.95,9.23,9.23,0,0,0,2.51.34,6.5,6.5,0,0,0,2.6-.47,3.73,3.73,0,0,0,1.63-1.29,3.42,3.42,0,0,0,.56-1.93,3.29,3.29,0,0,0-.49-1.81,4.06,4.06,0,0,0-1.61-1.37,13.3,13.3,0,0,0-3.07-1,14.71,14.71,0,0,1-3.88-1.43,6.78,6.78,0,0,1-2.4-2.17,5.28,5.28,0,0,1-.82-2.93,5.41,5.41,0,0,1,.93-3.12,6.24,6.24,0,0,1,2.58-2.18,8.77,8.77,0,0,1,3.85-.79,11.29,11.29,0,0,1,4.14.71,10.08,10.08,0,0,1,3,1.72v4.45H447l-.51-3.18a5.88,5.88,0,0,0-1.71-.92,7.7,7.7,0,0,0-2.54-.37,5.33,5.33,0,0,0-2.26.46A3.55,3.55,0,0,0,438.45,60a3.3,3.3,0,0,0-.55,1.91,2.87,2.87,0,0,0,.49,1.68A4.15,4.15,0,0,0,440,64.88a15.74,15.74,0,0,0,3,1,11.81,11.81,0,0,1,5.33,2.58,5.56,5.56,0,0,1,1.82,4.22,5.36,5.36,0,0,1-1,3.17A6.28,6.28,0,0,1,446.49,78,10.08,10.08,0,0,1,442.36,78.81Z"/><path d="M311.91,116.09v-2.68l2.37-.46V97l-2.37-.46V93.81h9.21V96.5l-2.37.46v16l2.37.46v2.68Z"/><path d="M322.84,116.09v-2.68l2.37-.46V97l-2.37-.46V93.81h6.9l9.7,15.45h.09V97l-2.85-.46V93.81h9.23V96.5l-2.39.46v19.13h-4.31l-9.92-15.3h-.09V113l2.86.46v2.68Z"/><path d="M347.38,116.09v-2.68l2.37-.46V97l-2.37-.46V93.81h6.9l9.7,15.45h.09V97l-2.85-.46V93.81h9.23V96.5l-2.39.46v19.13h-4.31l-9.92-15.3h-.09V113l2.86.46v2.68Z"/><path d="M382.13,116.41a9.87,9.87,0,0,1-4.11-.84,9.41,9.41,0,0,1-3.19-2.37,10.61,10.61,0,0,1-2.05-3.58,13.53,13.53,0,0,1-.72-4.5v-.34a13.51,13.51,0,0,1,.72-4.49,10.85,10.85,0,0,1,2.05-3.59A9.18,9.18,0,0,1,378,94.33a9.79,9.79,0,0,1,4.1-.84,9.93,9.93,0,0,1,4.13.84,9.2,9.2,0,0,1,3.21,2.37,10.92,10.92,0,0,1,2.08,3.59,13.51,13.51,0,0,1,.72,4.49v.34a13.53,13.53,0,0,1-.72,4.5,10.67,10.67,0,0,1-2.08,3.58,9.25,9.25,0,0,1-3.2,2.37A9.92,9.92,0,0,1,382.13,116.41Zm0-3.47a5,5,0,0,0,3.15-1,6.07,6.07,0,0,0,1.89-2.74,12.18,12.18,0,0,0,.63-4.1v-.37a11.73,11.73,0,0,0-.64-4.06A5.87,5.87,0,0,0,385.25,98,5.5,5.5,0,0,0,379,98a5.82,5.82,0,0,0-1.85,2.72,12,12,0,0,0-.62,4.08v.37a12.19,12.19,0,0,0,.62,4.1A5.88,5.88,0,0,0,379,112,4.91,4.91,0,0,0,382.13,112.94Z"/><path d="M402.52,116.09l-7.16-19.34-2-.25V93.81h8.86V96.5l-2,.31L404.6,110l.34,1.23H405l.32-1.2,4.38-13.17-2.34-.31V93.81h8.44V96.5l-2,.25-6.71,19.34Z"/><path d="M413.6,116.09v-2.68l1.59-.23,7.08-19.37h4.58l7,19.37,1.59.23v2.68h-7.59v-2.68l1.54-.27-1-3.06h-7.84l-1,3.06,1.55.27v2.68Zm8.08-9.3h5.72l-2.6-7.64-.22-.67h-.09l-.23.72Z"/><path d="M439.79,116.09v-2.68l2.39-.46V97.25h-4.05l-.25,2.67H434.5V93.81h19.87v6.11H451l-.25-2.67h-4.08V113l2.4.46v2.68Z"/><path d="M455.92,116.09v-2.68l2.37-.46V97l-2.37-.46V93.81h9.21V96.5l-2.37.46v16l2.37.46v2.68Z"/><path d="M477.05,116.41a9.79,9.79,0,0,1-4.1-.84,9.31,9.31,0,0,1-3.19-2.37,10.63,10.63,0,0,1-2.06-3.58,13.53,13.53,0,0,1-.72-4.5v-.34a13.51,13.51,0,0,1,.72-4.49,10.85,10.85,0,0,1,2.05-3.59,9.27,9.27,0,0,1,3.18-2.37,9.86,9.86,0,0,1,4.1-.84,10,10,0,0,1,4.14.84,9.38,9.38,0,0,1,3.21,2.37,10.72,10.72,0,0,1,2.07,3.59,13.26,13.26,0,0,1,.73,4.49v.34a13.28,13.28,0,0,1-.73,4.5,10.49,10.49,0,0,1-2.07,3.58,9.38,9.38,0,0,1-3.21,2.37A9.88,9.88,0,0,1,477.05,116.41Zm0-3.47a5,5,0,0,0,3.15-1,5.92,5.92,0,0,0,1.89-2.74,12.17,12.17,0,0,0,.64-4.1v-.37a11.72,11.72,0,0,0-.65-4.06,5.86,5.86,0,0,0-1.9-2.73A4.94,4.94,0,0,0,477,97a4.86,4.86,0,0,0-3.1,1,5.76,5.76,0,0,0-1.86,2.72,12.24,12.24,0,0,0-.62,4.08v.37a12.45,12.45,0,0,0,.62,4.1,5.82,5.82,0,0,0,1.87,2.74A4.9,4.9,0,0,0,477.05,112.94Z"/><path d="M489,116.09v-2.68l2.37-.46V97L489,96.5V93.81h6.9l9.7,15.45h.09V97l-2.84-.46V93.81H512V96.5l-2.38.46v19.13h-4.32l-9.91-15.3h-.1V113l2.87.46v2.68Z"/></svg>